<svg version="1.2" xmlns="http://www.w3.org/2000/svg" viewBox="0 0 477 477" enable-background="new 0 0 512 512"><path d="M156.113 1.462 C 142.576 6.141,131.419 18.557,127.660 33.126 C 126.588 37.282,126.518 39.706,127.198 49.026 C 127.640 55.074,128.717 64.494,129.592 69.960 C 130.467 75.426,131.725 83.431,132.388 87.751 C 133.050 92.070,133.733 95.832,133.905 96.110 C 134.077 96.388,134.811 100.101,135.537 104.361 C 136.849 112.066,139.380 119.505,142.495 124.815 C 144.534 128.292,160.601 144.690,161.968 144.690 C 162.522 144.690,162.975 145.003,162.975 145.387 C 162.975 145.770,165.748 146.820,169.136 147.720 C 185.302 152.016,185.318 152.022,185.059 153.344 C 184.879 154.262,184.133 154.549,182.438 154.352 C 181.134 154.200,179.710 153.795,179.273 153.451 C 178.835 153.107,175.794 152.233,172.515 151.508 C 163.538 149.525,160.032 147.568,152.979 140.607 L 146.561 134.272 146.575 140.475 C 146.583 144.112,146.009 148.650,145.186 151.448 C 143.905 155.804,132.133 176.715,124.889 187.502 C 113.781 204.044,112.962 207.158,112.821 233.393 C 112.732 250.001,112.825 251.175,114.544 255.256 C 118.764 265.269,130.525 279.442,138.715 284.384 C 144.328 287.771,151.314 290.478,157.263 291.570 C 172.687 294.402,186.998 288.902,194.462 277.272 C 196.304 274.402,196.365 273.806,196.365 258.729 L 196.365 243.152 192.061 238.640 C 185.432 231.691,175.324 227.082,164.336 225.998 C 159.618 225.533,148.696 228.294,144.508 231.012 C 142.878 232.069,141.296 232.935,140.993 232.935 C 140.691 232.935,139.796 233.520,139.005 234.236 C 137.673 235.442,137.530 235.437,137.045 234.174 C 135.545 230.263,150.821 223.697,162.180 223.370 C 172.141 223.083,184.563 227.627,191.463 234.081 C 193.594 236.074,195.569 237.705,195.851 237.705 C 196.134 237.705,196.365 231.444,196.365 223.793 L 196.365 209.880 210.664 209.880 L 224.964 209.880 225.173 236.442 L 225.383 263.004 235.320 252.458 C 240.786 246.658,249.372 237.496,254.400 232.098 C 259.428 226.700,266.226 219.480,269.505 216.053 L 275.468 209.823 293.165 210.050 L 310.863 210.278 302.904 218.382 C 298.527 222.839,294.950 226.774,294.957 227.127 C 294.964 227.479,295.256 227.316,295.606 226.765 C 295.956 226.214,299.796 224.845,304.140 223.724 C 313.950 221.192,319.279 221.384,328.733 224.608 C 336.154 227.139,342.137 231.376,340.543 232.970 C 340.056 233.457,338.501 232.938,336.244 231.536 C 328.360 226.639,323.887 225.383,314.346 225.383 C 309.041 225.383,305.079 225.737,304.408 226.271 C 303.795 226.760,301.409 227.774,299.108 228.525 C 296.806 229.276,292.807 231.481,290.221 233.425 C 283.649 238.365,280.239 243.419,278.345 251.026 C 276.803 257.225,276.803 257.323,278.346 263.985 C 280.830 274.711,287.707 283.435,297.330 288.072 C 302.045 290.344,303.306 290.586,311.733 290.830 C 319.944 291.069,321.603 290.878,326.684 289.111 C 341.215 284.058,354.115 272.608,361.338 258.354 C 364.631 251.856,364.905 248.916,364.154 228.096 C 363.542 211.120,363.240 208.146,361.742 204.367 C 359.799 199.463,356.987 194.428,353.278 189.210 C 351.880 187.242,348.249 181.340,345.211 176.093 C 342.173 170.846,338.206 164.054,336.396 161.000 C 334.586 157.946,333.103 155.084,333.100 154.640 C 333.097 154.196,332.509 152.759,331.792 151.448 C 330.876 149.771,330.464 146.897,330.406 141.766 L 330.322 134.470 324.360 140.265 C 317.523 146.909,312.960 149.477,304.043 151.699 C 300.570 152.564,296.613 153.628,295.250 154.063 C 292.656 154.890,290.413 154.185,291.263 152.809 C 291.536 152.367,293.639 151.564,295.936 151.026 C 298.233 150.487,300.470 149.795,300.908 149.487 C 301.345 149.179,303.849 148.474,306.473 147.920 C 312.947 146.551,318.072 142.983,326.578 133.919 C 336.519 123.328,339.523 117.177,342.270 101.799 C 343.399 95.480,344.825 87.073,345.441 83.116 C 346.056 79.160,346.933 73.776,347.388 71.153 C 348.804 62.996,350.580 46.729,350.588 41.852 C 350.616 23.817,336.941 5.596,319.988 1.078 C 315.366 -0.153,298.802 -0.356,293.906 0.759 C 282.497 3.357,278.253 4.553,267.915 8.085 C 254.676 12.607,246.051 13.696,230.948 12.751 C 223.358 12.276,220.626 11.671,210.278 8.171 C 192.300 2.090,181.945 -0.005,170.034 0.026 C 162.729 0.045,159.141 0.415,156.113 1.462 M171.655 7.259 C 179.982 8.689,190.800 15.198,190.800 18.777 C 190.800 20.425,189.706 20.108,187.577 17.842 C 183.572 13.579,175.584 10.053,167.480 8.972 C 161.358 8.155,149.905 13.173,145.276 18.700 C 140.493 24.410,137.756 33.789,138.852 40.713 C 139.108 42.336,139.071 44.304,138.767 45.086 C 138.247 46.429,138.153 46.422,137.081 44.964 C 135.393 42.671,135.618 33.484,137.494 28.148 C 142.154 14.890,150.627 8.371,165.692 6.453 C 166.094 6.402,168.777 6.765,171.655 7.259 M319.192 8.042 C 326.835 10.153,335.586 18.261,338.169 25.624 C 338.670 27.053,339.367 28.669,339.716 29.215 C 340.807 30.917,341.263 40.811,340.358 43.129 C 338.881 46.912,337.862 45.676,338.379 40.727 C 339.366 31.287,335.083 20.449,328.216 15.011 C 324.089 11.742,315.565 8.747,310.447 8.768 C 308.261 8.777,304.326 9.498,301.703 10.371 C 296.665 12.046,289.015 16.812,288.278 18.734 C 287.776 20.043,286.200 20.285,286.200 19.053 C 286.200 16.464,296.554 9.287,302.222 7.947 C 306.235 6.998,315.604 7.051,319.192 8.042 M206.124 52.420 C 210.289 56.077,212.665 64.196,212.653 74.730 C 212.644 81.947,212.345 83.842,210.441 88.727 C 207.888 95.275,205.355 98.050,201.930 98.050 C 199.581 98.050,196.200 95.646,194.738 92.936 C 193.081 89.864,190.800 79.089,190.800 74.333 C 190.800 68.386,193.319 58.100,195.731 54.197 C 198.568 49.606,202.210 48.983,206.124 52.420 M280.157 52.506 C 288.499 59.830,289.002 85.881,280.982 95.215 C 277.976 98.714,274.529 99.043,271.413 96.129 C 268.684 93.576,268.266 92.704,266.361 85.596 C 264.304 77.919,264.297 70.771,266.339 63.149 C 269.572 51.087,274.349 47.407,280.157 52.506 M260.406 107.141 C 271.392 109.421,276.630 112.274,280.950 118.331 C 283.109 121.359,283.448 122.559,283.698 128.070 C 283.890 132.303,283.696 134.355,283.104 134.355 C 282.570 134.355,282.225 132.659,282.225 130.029 C 282.225 127.650,281.895 125.500,281.491 125.250 C 281.088 125.001,280.537 123.792,280.267 122.564 C 279.712 120.037,275.085 114.940,271.810 113.246 C 264.624 109.530,255.885 108.177,238.898 108.151 C 225.029 108.129,218.198 109.034,212.663 111.626 C 204.991 115.217,201.813 119.967,201.446 128.387 C 201.276 132.288,200.896 133.958,200.176 133.958 C 198.530 133.958,198.436 126.111,200.030 121.776 C 202.750 114.376,207.874 109.955,215.946 108.043 C 218.075 107.538,220.533 106.827,221.407 106.461 C 223.582 105.552,255.424 106.108,260.406 107.141 M251.444 117.153 C 254.990 118.654,257.050 121.138,256.412 123.146 C 255.401 126.334,244.548 134.355,241.247 134.355 C 239.693 134.355,229.922 127.929,227.411 125.256 C 224.795 122.472,225.526 120.110,229.681 117.918 C 232.663 116.345,234.354 116.070,241.036 116.070 C 245.878 116.070,249.866 116.485,251.444 117.153 M268.512 252.895 L 260.761 260.731 263.468 264.919 C 264.957 267.223,268.087 271.699,270.424 274.867 C 272.761 278.035,276.640 283.479,279.045 286.966 C 281.450 290.453,285.206 295.765,287.393 298.771 C 289.579 301.777,291.904 305.060,292.560 306.067 C 293.216 307.073,295.541 310.344,297.728 313.336 C 299.914 316.327,303.670 321.687,306.075 325.247 C 308.480 328.807,311.074 332.389,311.839 333.207 C 312.604 334.026,313.230 335.009,313.230 335.393 C 313.230 335.776,313.767 336.536,314.423 337.080 C 315.078 337.624,315.615 338.384,315.615 338.767 C 315.615 339.151,307.646 339.465,297.907 339.465 L 280.199 339.465 271.076 325.942 C 266.058 318.504,261.237 311.237,260.363 309.792 C 259.488 308.348,257.073 304.799,254.996 301.907 C 252.919 299.014,251.220 296.428,251.220 296.160 C 251.220 295.892,249.787 293.733,248.036 291.362 C 246.285 288.991,244.447 286.164,243.953 285.080 C 242.208 281.249,240.945 281.797,232.784 289.928 L 224.985 297.698 224.985 318.581 L 224.985 339.465 210.675 339.465 L 196.365 339.465 196.365 309.929 L 196.365 280.393 191.625 284.914 C 178.071 297.842,158.482 298.869,138.674 287.691 C 136.370 286.390,134.054 284.807,133.527 284.173 C 131.747 282.028,131.175 283.002,131.175 288.176 C 131.175 293.456,130.283 296.561,119.144 330.059 C 117.011 336.472,114.759 344.522,114.139 347.946 C 112.006 359.730,111.124 379.712,111.427 409.425 L 111.723 438.442 113.840 444.274 C 118.556 457.260,127.879 468.195,138.773 473.517 L 145.088 476.603 161.782 476.603 L 178.478 476.603 184.440 473.743 C 187.854 472.106,193.495 468.296,197.639 464.829 C 204.416 459.159,204.996 458.433,206.781 453.379 C 208.453 448.647,208.684 446.611,208.660 436.853 C 208.637 427.852,208.372 425.266,207.273 423.338 C 206.526 422.026,205.913 420.450,205.910 419.836 C 205.889 415.149,192.298 398.845,185.633 395.513 C 183.884 394.638,182.274 393.690,182.055 393.406 C 181.836 393.122,179.690 392.285,177.285 391.546 C 174.880 390.807,172.179 389.855,171.283 389.430 C 168.243 387.988,151.246 389.081,144.883 391.128 C 138.725 393.108,136.707 392.779,139.932 390.320 C 142.249 388.553,149.956 386.680,157.808 385.974 C 169.035 384.966,182.120 388.916,191.521 396.152 C 196.846 400.250,204.223 409.385,207.072 415.406 C 211.772 425.342,213.111 439.274,210.430 450.367 C 209.690 453.428,209.085 456.068,209.085 456.235 C 209.085 456.641,212.714 455.979,221.805 453.916 C 231.301 451.762,242.914 450.618,246.053 451.528 C 247.364 451.908,252.015 453.003,256.387 453.960 C 260.760 454.918,265.321 456.003,266.524 456.372 C 269.063 457.150,269.026 457.342,267.533 451.163 C 265.157 441.321,266.254 425.499,269.854 417.684 C 270.536 416.202,271.641 413.805,272.307 412.356 C 275.553 405.306,286.183 395.105,294.758 390.812 C 306.569 384.899,325.252 384.406,336.977 389.699 C 339.478 390.828,340.209 391.509,339.587 392.131 C 338.965 392.753,337.102 392.474,332.933 391.133 C 326.506 389.067,309.534 387.983,306.512 389.445 C 305.616 389.879,303.452 390.660,301.703 391.180 C 287.896 395.288,274.378 409.529,270.539 424.010 C 268.940 430.041,268.300 443.036,269.417 446.790 C 269.873 448.320,270.805 451.631,271.488 454.146 C 272.665 458.479,273.134 459.052,280.407 465.053 C 293.620 475.957,297.693 477.233,318.102 476.866 C 332.745 476.603,332.751 476.602,337.918 474.056 C 348.011 469.083,357.897 458.063,362.436 446.728 C 364.268 442.153,364.997 438.643,365.643 431.278 C 366.731 418.875,366.731 384.503,365.643 373.289 C 362.620 342.117,363.443 346.072,354.221 318.397 C 346.943 296.557,345.758 292.282,345.847 288.188 C 345.904 285.564,345.922 283.107,345.888 282.727 C 345.853 282.347,344.597 282.973,343.096 284.118 C 341.594 285.263,340.129 286.200,339.840 286.200 C 339.550 286.200,338.321 286.906,337.109 287.769 C 335.897 288.632,332.265 290.331,329.037 291.545 C 323.659 293.568,322.269 293.750,312.435 293.722 C 303.821 293.698,301.232 293.425,299.317 292.336 C 298.006 291.590,296.557 290.978,296.098 290.975 C 295.639 290.972,293.077 289.379,290.404 287.434 C 285.537 283.893,279.847 276.779,277.122 270.827 C 274.354 264.784,273.827 253.630,276.034 247.816 C 276.496 246.599,276.736 245.481,276.568 245.331 C 276.400 245.181,272.775 248.585,268.512 252.895 " stroke="none" fill="black" fill-rule="evenodd"></path></svg>